<?xml version="1.0" encoding="UTF-8"?> <svg xmlns="http://www.w3.org/2000/svg" width="187" height="27" viewBox="0 0 187 27" fill="none"><path d="M0.704 10.384V3.6H20.384V10.384H18.432L17.12 6.064H13.152V23.504L16.096 24.208V26H4.992V24.208L7.936 23.504V6.064H3.936L2.624 10.384H0.704ZM22.155 26V24.304L24.875 23.664V12.912H22.155V11.216L27.275 10H29.803V11.92C31.403 10.32 33.3017 9.52 35.499 9.52C35.627 9.92533 35.691 10.3733 35.691 10.864C35.691 11.8453 35.5843 12.7627 35.371 13.616L31.339 12.944C30.827 13.1787 30.315 13.52 29.803 13.968V23.664L33.163 24.304V26H22.155ZM37.4125 22.032C37.4125 20.176 38.1698 18.768 39.6845 17.808C41.2205 16.8267 43.6952 16.336 47.1085 16.336V15.376C47.1085 14.736 47.0978 14.2773 47.0765 14C47.0765 13.7013 47.0338 13.3493 46.9485 12.944C46.8632 12.5387 46.7352 12.2507 46.5645 12.08C46.4152 11.9093 46.1805 11.76 45.8605 11.632C45.5405 11.4827 45.1458 11.408 44.6765 11.408L40.6125 14.928C39.1618 14.096 38.4365 12.8053 38.4365 11.056L39.3965 10.64C39.8018 10.4693 40.5912 10.2453 41.7645 9.968C42.9378 9.66933 44.0792 9.52 45.1885 9.52C49.7752 9.52 52.0685 11.3547 52.0685 15.024V23.6H54.5645V24.976C54.4578 25.0827 54.3085 25.2213 54.1165 25.392C53.9245 25.5627 53.5085 25.7867 52.8685 26.064C52.2285 26.3413 51.5672 26.48 50.8845 26.48C49.2632 26.48 48.0578 25.936 47.2685 24.848C45.8392 25.936 44.2818 26.48 42.5965 26.48C41.1245 26.48 39.8872 26.1067 38.8845 25.36C37.9032 24.6133 37.4125 23.504 37.4125 22.032ZM42.5645 21.744C42.5645 22.3627 42.7672 22.8533 43.1725 23.216C43.5992 23.5787 44.1112 23.76 44.7085 23.76C45.6685 23.76 46.4685 23.408 47.1085 22.704V18.32C45.9138 18.32 44.8578 18.64 43.9405 19.28C43.0232 19.8987 42.5645 20.72 42.5645 21.744ZM54.4257 11.696V10H64.2177V11.696L62.0417 12.208L65.2737 19.856L68.4417 12.24L66.3298 11.696V10H73.2738V11.696L70.5858 12.4L64.8897 26.224H62.6497L56.7297 12.368L54.4257 11.696ZM74.1187 17.808C74.1187 15.2907 74.8227 13.2853 76.2307 11.792C77.6601 10.2773 79.5907 9.52 82.0227 9.52C84.4974 9.52 86.3641 10.3627 87.6227 12.048C88.9027 13.7333 89.5427 15.8133 89.5427 18.288H79.0467C79.1961 19.8667 79.7614 21.232 80.7427 22.384C81.7241 23.5147 82.9827 24.08 84.5187 24.08C85.6707 24.08 86.9081 23.8347 88.2307 23.344L88.9027 25.168C86.9187 26.0427 84.9774 26.48 83.0787 26.48C80.3267 26.48 78.1401 25.68 76.5187 24.08C74.9187 22.4587 74.1187 20.368 74.1187 17.808ZM79.0467 16.304L84.4547 15.952C84.4547 15.44 84.4227 14.9707 84.3587 14.544C84.2947 14.096 84.1134 13.5627 83.8147 12.944C83.2814 12.048 82.6521 11.6 81.9267 11.6C81.0734 11.6 80.3694 12.0373 79.8147 12.912C79.4947 13.4453 79.2814 14.032 79.1747 14.672C79.0681 15.312 79.0254 15.856 79.0467 16.304ZM91.2362 26V24.304L93.9562 23.664V3.312H91.2362V1.616L96.3562 0.4H98.8842V23.664L101.604 24.304V26H91.2362Z" fill="black" fill-opacity="0.7"></path><path d="M102.869 26V24.304L105.589 23.664V3.312H102.869V1.616L107.989 0.4H110.517V23.664L113.237 24.304V26H102.869ZM114.981 26V24.304L117.701 23.664V12.912H114.981V11.216L120.101 10H122.629V23.664L125.349 24.304V26H114.981ZM117.189 5.072C117.189 4.24 117.477 3.54667 118.053 2.992C118.629 2.416 119.333 2.128 120.165 2.128C121.019 2.128 121.723 2.416 122.277 2.992C122.853 3.54667 123.141 4.24 123.141 5.072C123.141 5.92533 122.853 6.64 122.277 7.216C121.723 7.792 121.019 8.08 120.165 8.08C119.333 8.08 118.629 7.792 118.053 7.216C117.477 6.64 117.189 5.92533 117.189 5.072ZM127.114 26V24.304L129.834 23.664V12.912H127.114V11.216L132.234 10H134.762V11.568C136.063 10.2027 137.674 9.52 139.594 9.52C140.426 9.52 141.172 9.648 141.834 9.904C142.516 10.1387 143.082 10.48 143.53 10.928C143.999 11.376 144.362 11.9093 144.618 12.528C144.874 13.1467 145.002 13.8187 145.002 14.544V23.664L147.722 24.304V26H137.994V24.304L140.074 23.664V15.44C140.074 14.7787 140.031 14.2453 139.946 13.84C139.882 13.4347 139.764 13.1253 139.594 12.912C139.423 12.6773 139.188 12.528 138.89 12.464C138.612 12.3787 138.26 12.336 137.834 12.336C137.023 12.336 135.999 12.8053 134.762 13.744V23.664L136.842 24.304V26H127.114ZM157.951 26.48C156.735 26.48 155.594 26.2667 154.527 25.84C153.482 25.4133 152.575 24.8267 151.807 24.08C151.039 23.3333 150.431 22.4373 149.983 21.392C149.535 20.3467 149.311 19.2053 149.311 17.968C149.311 16.7307 149.535 15.6 149.983 14.576C150.431 13.5307 151.039 12.6347 151.807 11.888C152.575 11.1413 153.482 10.5653 154.527 10.16C155.594 9.73333 156.735 9.52 157.951 9.52C159.167 9.52 160.298 9.73333 161.343 10.16C162.388 10.5653 163.295 11.1413 164.063 11.888C164.852 12.6347 165.46 13.5307 165.887 14.576C166.335 15.6 166.559 16.7307 166.559 17.968C166.559 19.184 166.335 20.3147 165.887 21.36C165.46 22.4053 164.852 23.312 164.063 24.08C163.295 24.8267 162.388 25.4133 161.343 25.84C160.298 26.2667 159.167 26.48 157.951 26.48ZM154.463 17.968C154.463 19.9733 154.751 21.552 155.327 22.704C155.924 23.8347 156.799 24.4 157.951 24.4C159.103 24.4 159.967 23.8347 160.543 22.704C161.14 21.552 161.439 19.9733 161.439 17.968C161.439 15.984 161.14 14.4267 160.543 13.296C159.967 12.1653 159.103 11.6 157.951 11.6C156.799 11.6 155.924 12.1653 155.327 13.296C154.751 14.4267 154.463 15.984 154.463 17.968ZM177.646 26.48C176.43 26.48 175.289 26.2667 174.222 25.84C173.177 25.4133 172.27 24.8267 171.502 24.08C170.734 23.3333 170.126 22.4373 169.678 21.392C169.23 20.3467 169.006 19.2053 169.006 17.968C169.006 16.7307 169.23 15.6 169.678 14.576C170.126 13.5307 170.734 12.6347 171.502 11.888C172.27 11.1413 173.177 10.5653 174.222 10.16C175.289 9.73333 176.43 9.52 177.646 9.52C178.862 9.52 179.993 9.73333 181.038 10.16C182.083 10.5653 182.99 11.1413 183.758 11.888C184.547 12.6347 185.155 13.5307 185.582 14.576C186.03 15.6 186.254 16.7307 186.254 17.968C186.254 19.184 186.03 20.3147 185.582 21.36C185.155 22.4053 184.547 23.312 183.758 24.08C182.99 24.8267 182.083 25.4133 181.038 25.84C179.993 26.2667 178.862 26.48 177.646 26.48ZM174.158 17.968C174.158 19.9733 174.446 21.552 175.022 22.704C175.619 23.8347 176.494 24.4 177.646 24.4C178.798 24.4 179.662 23.8347 180.238 22.704C180.835 21.552 181.134 19.9733 181.134 17.968C181.134 15.984 180.835 14.4267 180.238 13.296C179.662 12.1653 178.798 11.6 177.646 11.6C176.494 11.6 175.619 12.1653 175.022 13.296C174.446 14.4267 174.158 15.984 174.158 17.968Z" fill="#80A5B3"></path></svg> 