<?xml version="1.0" encoding="UTF-8"?> <svg xmlns="http://www.w3.org/2000/svg" width="118" height="123" viewBox="0 0 118 123" fill="none"><path d="M106.41 76.26C106.57 76.26 106.72 76.28 106.87 76.3C107.85 74.6 108.74 72.81 109.54 70.94C109.56 70.9 109.57 70.87 109.59 70.83C110.8 67.98 111.71 65.02 112.32 61.95C112.8 59.57 113.09 57.13 113.2 54.63H98.81C98.55 61.94 96.37 69.14 92.3 76.25H106.41V76.26ZM11.06 111.51C11.07 108.99 12.5 106.53 14.82 103.78L1.36002 95.27C0.510021 94.9 0.530021 94.38 1.02002 93.77L3.87002 91.34C4.39002 91.02 4.94002 90.88 5.53002 91.05L22.15 93.86L32.96 81.9L0.650021 60.02C-0.169979 59.54 -0.239979 59 0.600021 58.37L5.26002 54.65L47.4 66.49L59.85 53.18C64.03 49.57 68.08 47.95 71.2 48.72C72.92 49.14 73.52 49.66 74.05 51.27C75.08 54.43 73.48 58.67 69.7 63.04L56.4 75.48L68.24 117.62L64.52 122.28C63.89 123.12 63.35 123.05 62.87 122.24L40.99 89.92L29.03 100.73L31.84 117.35C32 117.94 31.87 118.49 31.55 119.01L29.12 121.86C28.51 122.35 27.99 122.37 27.62 121.52L19.11 108.06C16.34 110.39 13.88 111.82 11.36 111.82C11.11 111.81 11.06 111.73 11.06 111.51ZM103.9 80.85H89.4C85.43 86.6 80.22 92.29 73.78 97.91L72.4 93.01C76.86 88.97 80.64 84.92 83.75 80.85H68.98L68.22 78.15L70.24 76.26H86.96C91.5 69.11 93.94 61.9 94.23 54.64H85.46C85.69 53.09 85.72 51.55 85.54 50.05H94.13C93.53 42.95 90.9 35.75 86.19 28.43H67.78V37.49C66.35 37.73 64.92 38.14 63.48 38.7C63.38 38.74 63.29 38.78 63.19 38.82V28.44H44.78C40.07 35.75 37.44 42.96 36.84 50.06H49.04L44.75 54.65H44.69L28.36 50.06H32.26C32.79 42.9 35.17 35.7 39.42 28.44H24.08C23.11 30.13 22.23 31.9 21.43 33.75C21.41 33.79 21.4 33.82 21.38 33.86C20.17 36.71 19.26 39.67 18.65 42.74C18.36 44.19 18.14 45.65 17.98 47.14L13.5 45.88C13.66 44.52 13.88 43.17 14.14 41.84C14.81 38.49 15.82 35.23 17.16 32.06C17.18 32.02 17.19 31.98 17.21 31.93C18.57 28.77 20.18 25.8 22.05 23.01C23.92 20.23 26.04 17.65 28.41 15.29C30.77 12.92 33.35 10.8 36.13 8.93C38.92 7.06 41.9 5.44 45.05 4.09H45.06C48.26 2.72 51.56 1.7 54.95 1.02C58.38 0.34 61.88 0 65.49 0C69.09 0 72.6 0.34 76 1.02C79.35 1.69 82.61 2.7 85.78 4.04C85.82 4.06 85.87 4.07 85.91 4.09C89.07 5.45 92.04 7.06 94.83 8.93C97.62 10.8 100.19 12.92 102.55 15.29C104.93 17.65 107.04 20.23 108.91 23.01C110.78 25.8 112.4 28.78 113.75 31.93V31.94C115.12 35.14 116.14 38.44 116.82 41.83C117.5 45.23 117.84 48.74 117.84 52.34C117.84 55.94 117.5 59.45 116.82 62.85C116.15 66.2 115.14 69.46 113.8 72.62C113.79 72.66 113.77 72.7 113.75 72.75C112.39 75.91 110.78 78.88 108.91 81.67C107.04 84.45 104.93 87.03 102.55 89.39C100.18 91.76 97.61 93.88 94.83 95.75C92.04 97.62 89.06 99.24 85.91 100.59H85.9C82.7 101.96 79.4 102.98 76.01 103.66C75.82 103.7 75.63 103.73 75.45 103.77L74.2 99.34C74.5 99.29 74.81 99.23 75.11 99.17C78.22 98.55 81.22 97.62 84.1 96.39C87.03 95.13 89.76 93.65 92.29 91.96C94.82 90.26 97.16 88.33 99.32 86.17L99.33 86.16C100.98 84.51 102.51 82.74 103.9 80.85ZM27.07 23.85H42.35C46.7 17.58 52.46 11.27 59.64 4.92C58.37 5.07 57.11 5.27 55.86 5.52C52.75 6.14 49.76 7.07 46.87 8.3C43.94 9.56 41.21 11.04 38.68 12.73C36.15 14.43 33.81 16.36 31.65 18.52L31.64 18.53C29.99 20.19 28.46 21.97 27.07 23.85ZM71.32 4.92C78.5 11.27 84.26 17.57 88.61 23.85H103.9C102.51 21.97 100.98 20.19 99.32 18.53L99.31 18.52C97.16 16.36 94.81 14.43 92.28 12.73C89.75 11.04 87.02 9.56 84.09 8.3C84.05 8.28 84.02 8.27 83.98 8.25C81.13 7.04 78.17 6.13 75.1 5.52C73.86 5.27 72.6 5.07 71.32 4.92ZM106.88 28.44H91.55C95.81 35.69 98.18 42.9 98.71 50.06H113.19C113.08 47.56 112.78 45.12 112.31 42.74C111.69 39.63 110.76 36.64 109.53 33.75C108.73 31.9 107.86 30.13 106.88 28.44ZM67.78 7.9V23.85H82.97C78.98 18.59 73.92 13.27 67.78 7.9ZM63.19 23.85V7.9C57.05 13.27 51.99 18.59 48 23.85H63.19Z" fill="white"></path></svg> 